# 3ds Max Wavefront OBJ Exporter v0.97b - (c)2007 guruware
# File Created: 31.08.2015 20:01:35

mtllib ding.mtl

#
# object ding
#

v  97.7210 136.8439 -0.0000
v  97.7210 136.8439 66.2462
v  90.5308 66.0021 59.4136
v  90.5308 66.0021 -0.0000
v  115.6930 159.9962 -0.0000
v  115.6930 159.9962 82.1809
v  107.9690 134.6783 76.9682
v  107.9690 134.6783 -0.0000
v  88.0942 159.9962 60.7906
v  88.0942 159.9962 -0.0000
v  78.7377 97.2820 53.0046
v  78.7377 97.2820 -0.0000
v  0.0000 97.2820 53.0046
v  0.0000 97.2820 -0.0000
v  0.0000 136.8439 66.2462
v  0.0000 66.0021 59.4136
v  0.0000 159.9962 82.1809
v  0.0000 134.6783 76.9682
v  0.0000 159.9962 60.7906
v  83.3559 39.1903 48.8080
v  0.0000 39.1903 48.8080
v  83.3559 39.1903 -0.0000
v  55.0833 0.4769 46.7167
v  80.0833 0.4769 46.7167
v  77.8923 10.6893 44.5270
v  52.2489 10.6893 44.5270
v  55.0833 0.4769 21.7167
v  52.2489 10.6893 18.8836
v  80.0833 0.4769 21.7167
v  77.8923 10.6893 18.8836
v  50.2727 40.8533 46.5031
v  79.8684 40.8533 46.5031
v  50.2727 40.8533 16.9075
v  79.8684 40.8533 16.9075
v  113.5838 77.4404 10.2774
v  87.7130 68.8112 10.2774
v  85.2897 50.8144 10.2774
v  127.8907 70.1695 10.2774
v  94.2702 106.7701 10.2774
v  94.2702 106.7701 -0.0000
v  104.5718 108.7132 -0.0000
v  104.5718 108.7132 10.2774
v  85.2897 50.8144 -0.0000
v  127.8907 70.1695 -0.0000
v  114.8733 106.9265 10.2774
v  123.8718 122.5123 10.2774
v  109.0710 121.7748 10.2774
v  123.7377 95.4608 13.9650
v  114.8733 106.9265 -0.0000
v  123.7377 95.4608 -0.0000
v  123.8718 122.5123 -0.0000
v  109.0710 121.7748 -0.0000
v  141.4611 98.5860 13.9650
v  141.4611 98.5860 -0.0000
v  118.6607 86.4506 9.5353
v  118.6607 86.4506 -0.0000
v  134.6759 84.3777 9.5353
v  134.6759 84.3777 -0.0000
v  113.5838 77.4404 -0.0000
v  87.7130 68.8112 -0.0000
v  94.2702 124.7670 10.2774
v  94.2702 124.7670 -0.0000
v  103.7929 219.9418 -0.0000
v  103.7897 219.9255 14.7779
v  123.4478 219.9255 14.7779
v  123.4510 219.9418 -0.0000
v  98.6241 193.8476 -0.0000
v  98.6115 193.7838 14.6530
v  118.2695 193.7838 14.6530
v  118.2822 193.8476 -0.0000
v  89.5432 148.0036 18.4303
v  89.5432 148.0036 44.5245
v  100.9398 205.5382 32.2000
v  109.2013 148.0036 44.5245
v  120.5979 205.5382 32.2000
v  109.2013 148.0036 18.4303
v  102.7555 214.7046 25.3188
v  122.4136 214.7046 25.3188
v  -97.7210 136.8439 -0.0000
v  -90.5308 66.0021 -0.0000
v  -90.5308 66.0021 59.4136
v  -97.7210 136.8439 66.2462
v  -115.6930 159.9962 -0.0000
v  -107.9690 134.6783 -0.0000
v  -107.9690 134.6783 76.9682
v  -115.6930 159.9962 82.1809
v  -88.0942 159.9962 60.7906
v  -88.0942 159.9962 -0.0000
v  -78.7377 97.2820 53.0046
v  -78.7377 97.2820 -0.0000
v  -83.3559 39.1903 48.8080
v  -83.3559 39.1903 -0.0000
v  -55.0833 0.4769 46.7167
v  -52.2489 10.6893 44.5270
v  -77.8923 10.6893 44.5270
v  -80.0833 0.4769 46.7167
v  -55.0833 0.4769 21.7167
v  -52.2489 10.6893 18.8836
v  -80.0833 0.4769 21.7167
v  -77.8923 10.6893 18.8836
v  -50.2727 40.8533 46.5031
v  -79.8684 40.8533 46.5031
v  -50.2727 40.8533 16.9075
v  -79.8684 40.8533 16.9075
v  -113.5838 77.4404 10.2774
v  -127.8907 70.1695 10.2774
v  -85.2897 50.8144 10.2774
v  -87.7130 68.8112 10.2774
v  -94.2702 106.7701 10.2774
v  -104.5718 108.7132 10.2774
v  -104.5718 108.7132 -0.0000
v  -94.2702 106.7701 -0.0000
v  -127.8907 70.1695 -0.0000
v  -85.2897 50.8144 -0.0000
v  -114.8733 106.9265 10.2774
v  -109.0710 121.7748 10.2774
v  -123.8718 122.5123 10.2774
v  -123.7377 95.4608 13.9650
v  -123.7377 95.4608 -0.0000
v  -114.8733 106.9265 -0.0000
v  -109.0710 121.7748 -0.0000
v  -123.8718 122.5123 -0.0000
v  -141.4611 98.5860 13.9650
v  -141.4611 98.5860 -0.0000
v  -118.6607 86.4506 9.5353
v  -118.6607 86.4506 -0.0000
v  -134.6759 84.3777 9.5353
v  -134.6759 84.3777 -0.0000
v  -87.7130 68.8112 -0.0000
v  -113.5838 77.4404 -0.0000
v  -94.2702 124.7670 10.2774
v  -94.2702 124.7670 -0.0000
v  -103.7929 219.9418 -0.0000
v  -123.4510 219.9418 -0.0000
v  -123.4478 219.9255 14.7779
v  -103.7897 219.9255 14.7779
v  -98.6115 193.7838 14.6530
v  -98.6241 193.8476 -0.0000
v  -118.2695 193.7838 14.6530
v  -118.2822 193.8476 -0.0000
v  -100.9398 205.5382 32.2000
v  -89.5432 148.0036 44.5245
v  -89.5432 148.0036 18.4303
v  -120.5979 205.5382 32.2000
v  -109.2013 148.0036 44.5245
v  -109.2013 148.0036 18.4303
v  -102.7555 214.7046 25.3188
v  -122.4136 214.7046 25.3188
v  90.5308 66.0021 -59.4136
v  97.7210 136.8439 -66.2462
v  107.9690 134.6783 -76.9682
v  115.6930 159.9962 -82.1809
v  88.0942 159.9962 -60.7906
v  78.7377 97.2820 -53.0046
v  0.0000 97.2820 -53.0046
v  0.0000 136.8439 -66.2462
v  0.0000 66.0021 -59.4136
v  0.0000 159.9962 -82.1809
v  0.0000 134.6783 -76.9682
v  0.0000 159.9962 -60.7906
v  83.3559 39.1902 -48.8080
v  0.0000 39.1902 -48.8080
v  55.0833 0.4769 -46.7167
v  52.2489 10.6893 -44.5270
v  77.8923 10.6893 -44.5270
v  80.0833 0.4769 -46.7167
v  55.0833 0.4769 -21.7167
v  52.2489 10.6893 -18.8836
v  80.0833 0.4769 -21.7167
v  77.8923 10.6893 -18.8836
v  50.2727 40.8533 -46.5031
v  79.8684 40.8533 -46.5031
v  50.2727 40.8533 -16.9075
v  79.8684 40.8533 -16.9075
v  113.5838 77.4404 -10.2774
v  127.8907 70.1695 -10.2774
v  85.2897 50.8144 -10.2774
v  87.7130 68.8112 -10.2774
v  94.2702 106.7701 -10.2774
v  104.5718 108.7132 -10.2774
v  114.8733 106.9265 -10.2774
v  109.0710 121.7748 -10.2774
v  123.8718 122.5123 -10.2774
v  123.7377 95.4608 -13.9650
v  141.4611 98.5860 -13.9650
v  118.6607 86.4506 -9.5353
v  134.6759 84.3777 -9.5353
v  94.2702 124.7670 -10.2774
v  123.4478 219.9255 -14.7780
v  103.7897 219.9255 -14.7780
v  98.6115 193.7838 -14.6530
v  118.2695 193.7838 -14.6530
v  100.9398 205.5382 -32.2000
v  89.5432 148.0036 -44.5245
v  89.5432 148.0036 -18.4303
v  120.5979 205.5382 -32.2000
v  109.2013 148.0036 -44.5245
v  109.2013 148.0036 -18.4303
v  102.7555 214.7046 -25.3188
v  122.4136 214.7046 -25.3188
v  -97.7210 136.8439 -66.2462
v  -90.5308 66.0021 -59.4136
v  -115.6930 159.9962 -82.1809
v  -107.9690 134.6783 -76.9682
v  -88.0942 159.9962 -60.7906
v  -78.7377 97.2820 -53.0046
v  -83.3559 39.1902 -48.8080
v  -55.0833 0.4769 -46.7167
v  -80.0833 0.4769 -46.7167
v  -77.8923 10.6893 -44.5270
v  -52.2489 10.6893 -44.5270
v  -55.0833 0.4769 -21.7167
v  -52.2489 10.6893 -18.8836
v  -80.0833 0.4769 -21.7167
v  -77.8923 10.6893 -18.8836
v  -50.2727 40.8533 -46.5031
v  -79.8684 40.8533 -46.5031
v  -50.2727 40.8533 -16.9075
v  -79.8684 40.8533 -16.9075
v  -113.5838 77.4404 -10.2774
v  -87.7130 68.8112 -10.2774
v  -85.2897 50.8144 -10.2774
v  -127.8907 70.1695 -10.2774
v  -94.2702 106.7701 -10.2774
v  -104.5718 108.7132 -10.2774
v  -114.8733 106.9265 -10.2774
v  -123.8718 122.5123 -10.2774
v  -109.0710 121.7748 -10.2774
v  -123.7377 95.4608 -13.9650
v  -141.4611 98.5860 -13.9650
v  -118.6607 86.4506 -9.5353
v  -134.6759 84.3777 -9.5353
v  -94.2702 124.7670 -10.2774
v  -103.7897 219.9255 -14.7780
v  -123.4478 219.9255 -14.7780
v  -98.6115 193.7838 -14.6530
v  -118.2695 193.7838 -14.6530
v  -89.5432 148.0036 -18.4303
v  -89.5432 148.0036 -44.5245
v  -100.9398 205.5382 -32.2000
v  -109.2013 148.0036 -44.5245
v  -120.5979 205.5382 -32.2000
v  -109.2013 148.0036 -18.4303
v  -102.7555 214.7046 -25.3188
v  -122.4136 214.7046 -25.3188
# 245 vertices

vn 0.9949 -0.1010 0.0000
vn 0.9949 -0.1010 -0.0000
vn 0.9858 -0.1676 0.0000
vn 0.9836 -0.1803 0.0000
vn 0.9565 -0.2918 0.0000
vn 0.9565 -0.2918 -0.0000
vn 0.0000 1.0000 -0.0000
vn -0.9891 0.1476 -0.0000
vn -0.0000 1.0000 -0.0000
vn 0.0000 -0.0960 0.9954
vn 0.0000 -0.2342 0.9722
vn -0.0000 -0.2184 0.9759
vn 0.0000 -0.2017 0.9795
vn 0.0000 0.1232 -0.9924
vn -0.0000 0.1232 -0.9924
vn -0.0000 -0.3678 0.9299
vn 0.0000 -0.3678 0.9299
vn 0.9660 -0.2585 0.0000
vn 0.0000 0.2097 0.9778
vn 0.0000 0.0786 0.9969
vn 0.0000 0.0572 0.9984
vn -0.9636 -0.2674 0.0000
vn -0.9852 -0.1714 0.0000
vn -0.9878 -0.1560 0.0000
vn 0.0000 -0.2673 -0.9636
vn 0.0000 -0.1560 -0.9878
vn 0.0000 -0.1714 -0.9852
vn 0.9777 0.2098 0.0000
vn 0.9777 0.2098 -0.0000
vn 0.9984 0.0573 -0.0000
vn 0.9969 0.0787 0.0000
vn -0.0000 -0.0654 0.9979
vn 0.0000 -0.0654 0.9979
vn -0.9979 -0.0654 0.0000
vn 0.0000 -0.0654 -0.9979
vn 0.9979 -0.0654 -0.0000
vn 0.9979 -0.0654 0.0000
vn 0.0128 0.0252 0.9996
vn -0.0000 0.0000 1.0000
vn 0.0103 0.0346 0.9993
vn 0.1853 -0.9827 -0.0000
vn 0.0074 -1.0000 -0.0000
vn 0.4136 -0.9104 -0.0000
vn 0.7003 -0.7138 -0.0000
vn 0.6964 -0.7177 -0.0000
vn -0.0483 0.0664 0.9966
vn -0.0627 0.0362 0.9974
vn 0.0000 0.0000 1.0000
vn -0.9935 -0.1137 -0.0000
vn -0.5402 -0.8415 -0.0000
vn -0.5160 -0.8566 -0.0000
vn -0.9974 -0.0724 -0.0000
vn 0.0748 0.9972 -0.0000
vn 0.4474 0.8943 -0.0000
vn 0.4291 0.9032 -0.0000
vn -0.0266 -0.0671 0.9974
vn -0.0204 -0.0679 0.9975
vn 0.9919 0.1267 -0.0000
vn 0.9956 0.0941 -0.0000
vn -0.8712 0.4909 -0.0000
vn -0.0086 -0.1284 0.9917
vn 0.0118 -0.1992 0.9799
vn 0.9024 -0.4309 -0.0000
vn -0.3164 0.9486 -0.0000
vn -0.6294 0.7771 -0.0000
vn -0.6364 0.7714 -0.0000
vn 0.1982 0.9802 -0.0000
vn 0.0000 1.0000 0.0000
vn 0.0000 1.0000 0.0011
vn -0.9809 0.1943 -0.0000
vn -0.9809 0.1943 0.0000
vn 0.9809 -0.1943 0.0000
vn 0.9809 -0.1943 -0.0000
vn -0.0000 -1.0000 -0.0044
vn 0.0000 -1.0000 -0.0000
vn -0.0000 -1.0000 -0.0000
vn 0.0000 0.2095 0.9778
vn -0.0000 -0.0822 -0.9966
vn 0.0000 0.6004 0.7997
vn 0.0000 0.8961 0.4438
vn -0.9949 -0.1010 0.0000
vn -0.9836 -0.1803 0.0000
vn -0.9858 -0.1676 0.0000
vn -0.9949 -0.1010 -0.0000
vn -0.9565 -0.2918 0.0000
vn -0.9565 -0.2918 -0.0000
vn 0.9891 0.1476 -0.0000
vn 0.0000 -0.2184 0.9759
vn -0.0000 -0.2017 0.9795
vn -0.9660 -0.2585 0.0000
vn -0.0000 0.2097 0.9778
vn -0.0000 0.0572 0.9984
vn -0.0000 0.0786 0.9969
vn 0.9636 -0.2674 0.0000
vn 0.9878 -0.1560 0.0000
vn 0.9852 -0.1714 0.0000
vn -0.9777 0.2098 0.0000
vn -0.9969 0.0787 0.0000
vn -0.9984 0.0573 -0.0000
vn -0.9777 0.2098 -0.0000
vn -0.9979 -0.0654 -0.0000
vn -0.0128 0.0252 0.9996
vn -0.0103 0.0346 0.9993
vn -0.1853 -0.9827 -0.0000
vn -0.0074 -1.0000 -0.0000
vn -0.4136 -0.9104 -0.0000
vn -0.6964 -0.7177 -0.0000
vn -0.7003 -0.7138 -0.0000
vn 0.0483 0.0664 0.9966
vn 0.0627 0.0362 0.9974
vn 0.9935 -0.1137 -0.0000
vn 0.9974 -0.0724 -0.0000
vn 0.5160 -0.8566 -0.0000
vn 0.5402 -0.8415 -0.0000
vn -0.0748 0.9972 -0.0000
vn -0.4291 0.9032 -0.0000
vn -0.4474 0.8943 -0.0000
vn 0.0204 -0.0679 0.9975
vn 0.0266 -0.0671 0.9974
vn -0.9956 0.0941 -0.0000
vn -0.9919 0.1267 -0.0000
vn 0.8712 0.4909 -0.0000
vn 0.0086 -0.1284 0.9917
vn -0.0118 -0.1992 0.9799
vn -0.9024 -0.4309 -0.0000
vn 0.3164 0.9486 -0.0000
vn 0.6364 0.7714 -0.0000
vn 0.6294 0.7771 -0.0000
vn -0.1982 0.9802 -0.0000
vn -0.0000 1.0000 0.0000
vn -0.0000 1.0000 0.0011
vn 0.9809 0.1943 -0.0000
vn 0.9809 0.1943 0.0000
vn -0.9809 -0.1943 0.0000
vn -0.9809 -0.1943 -0.0000
vn 0.0000 -1.0000 -0.0044
vn -0.0000 0.2095 0.9778
vn 0.0000 -0.0822 -0.9966
vn -0.0000 0.6004 0.7997
vn -0.0000 0.8961 0.4438
vn 0.9858 -0.1676 -0.0000
vn 0.0000 -0.0960 -0.9954
vn -0.0000 -0.2184 -0.9759
vn 0.0000 -0.2342 -0.9722
vn 0.0000 -0.2017 -0.9795
vn 0.0000 0.1232 0.9924
vn -0.0000 -0.3678 -0.9299
vn 0.0000 -0.3678 -0.9299
vn 0.0000 0.2097 -0.9778
vn 0.0000 0.0572 -0.9984
vn 0.0000 0.0786 -0.9969
vn 0.0000 -0.2673 0.9636
vn 0.0000 -0.1714 0.9852
vn 0.0000 -0.1560 0.9878
vn 0.9969 0.0787 -0.0000
vn -0.0000 -0.0654 -0.9979
vn 0.0128 0.0252 -0.9996
vn 0.0103 0.0346 -0.9993
vn 0.0000 -0.0000 -1.0000
vn -0.0000 -0.0000 -1.0000
vn -0.0483 0.0664 -0.9966
vn -0.0627 0.0362 -0.9974
vn -0.0204 -0.0679 -0.9975
vn -0.0266 -0.0671 -0.9974
vn -0.0086 -0.1284 -0.9917
vn 0.0118 -0.1992 -0.9799
vn 0.0000 1.0000 -0.0011
vn -0.0000 -1.0000 0.0044
vn 0.0000 0.2095 -0.9778
vn -0.0000 -0.0822 0.9966
vn 0.0000 0.6004 -0.7997
vn 0.0000 0.8961 -0.4438
vn -0.9858 -0.1676 -0.0000
vn 0.0000 -0.2184 -0.9759
vn -0.0000 -0.2017 -0.9795
vn -0.0000 0.1232 0.9924
vn -0.0000 0.2097 -0.9778
vn -0.0000 0.0786 -0.9969
vn -0.0000 0.0572 -0.9984
vn -0.9969 0.0787 -0.0000
vn -0.0128 0.0252 -0.9996
vn -0.0103 0.0346 -0.9993
vn 0.0483 0.0664 -0.9966
vn 0.0627 0.0362 -0.9974
vn 0.0266 -0.0671 -0.9974
vn 0.0204 -0.0679 -0.9975
vn 0.0086 -0.1284 -0.9917
vn -0.0118 -0.1992 -0.9799
vn -0.0000 1.0000 -0.0011
vn 0.0000 -1.0000 0.0044
vn -0.0000 0.2095 -0.9778
vn 0.0000 -0.0822 0.9966
vn -0.0000 0.6004 -0.7997
vn -0.0000 0.8961 -0.4438
# 194 vertex normals

vt 0.0151 0.4355 0.0000
vt 0.2757 0.4355 0.0000
vt 0.2757 0.1257 0.0000
vt 0.0151 0.1257 0.0000
vt 0.9160 0.8258 0.0000
vt 0.9126 0.5101 0.0000
vt 0.8106 0.5101 0.0000
vt 0.8106 0.8258 0.0000
vt 0.9844 0.5101 0.0000
vt 0.9851 0.8258 0.0000
vt 0.2647 0.5214 0.0000
vt 0.4068 0.4499 0.0000
vt 0.4068 0.6067 0.0000
vt 0.2647 0.6067 0.0000
vt 0.0169 0.5214 0.0000
vt 0.0169 0.6067 0.0000
vt 0.6432 0.4355 0.0000
vt 0.6432 0.1257 0.0000
vt 0.9126 0.0156 0.0000
vt 0.8106 0.0156 0.0000
vt 0.9844 0.0156 0.0000
vt 0.0175 0.4499 0.0000
vt 0.2757 0.0157 0.0000
vt 0.6432 0.0157 0.0000
vt 0.0151 0.0151 0.0000
vt 0.6521 0.6759 0.0000
vt 0.6521 0.5600 0.0000
vt 0.5944 0.5600 0.0000
vt 0.5944 0.6759 0.0000
vt 0.6521 0.4531 0.0000
vt 0.5944 0.4531 0.0000
vt 0.4220 0.6759 0.0000
vt 0.4220 0.5600 0.0000
vt 0.4220 0.4531 0.0000
vt 0.0990 0.6955 0.0000
vt 0.0169 0.6955 0.0000
vt 0.0169 0.7839 0.0000
vt 0.0990 0.7839 0.0000
vt 0.4057 0.6955 0.0000
vt 0.4057 0.6225 0.0000
vt 0.3383 0.6225 0.0000
vt 0.3389 0.6955 0.0000
vt 0.0169 0.8523 0.0000
vt 0.0990 0.8523 0.0000
vt 0.2782 0.6955 0.0000
vt 0.2782 0.7839 0.0000
vt 0.3389 0.7839 0.0000
vt 0.1913 0.6955 0.0000
vt 0.2797 0.6225 0.0000
vt 0.1913 0.6225 0.0000
vt 0.2782 0.8523 0.0000
vt 0.3401 0.8523 0.0000
vt 0.1913 0.7839 0.0000
vt 0.1913 0.8523 0.0000
vt 0.1513 0.6955 0.0000
vt 0.1503 0.6225 0.0000
vt 0.1513 0.7839 0.0000
vt 0.1507 0.8523 0.0000
vt 0.0990 0.6225 0.0000
vt 0.0169 0.6225 0.0000
vt 0.4057 0.7839 0.0000
vt 0.4057 0.8523 0.0000
vt 0.5035 0.8717 0.0000
vt 0.4319 0.8717 0.0000
vt 0.4319 0.9851 0.0000
vt 0.5035 0.9851 0.0000
vt 0.5899 0.8116 0.0000
vt 0.7328 0.8116 0.0000
vt 0.7331 0.8917 0.0000
vt 0.5900 0.8908 0.0000
vt 0.6583 0.0159 0.0000
vt 0.6583 0.2054 0.0000
vt 0.7988 0.2054 0.0000
vt 0.7988 0.0159 0.0000
vt 0.9838 0.8422 0.0000
vt 0.9838 0.9839 0.0000
vt 0.6688 0.9844 0.0000
vt 0.3159 0.8717 0.0000
vt 0.0156 0.8717 0.0000
vt 0.0156 0.9851 0.0000
vt 0.3159 0.9851 0.0000
vt 0.7988 0.3949 0.0000
vt 0.6583 0.3949 0.0000
vt 0.6186 0.9475 0.0000
vt 0.3719 0.8717 0.0000
vt 0.3719 0.9851 0.0000
# 86 texture coords

g ding
usemtl ding
s 4
f 1/1/1 2/2/2 3/3/3 4/4/4 
f 5/5/5 6/6/6 7/7/6 8/8/5 
s 1
f 9/9/7 6/6/7 5/5/7 10/10/7 
s 4
f 11/11/8 9/12/8 10/13/8 12/14/8 
s 1
f 13/15/7 11/11/7 12/14/9 14/16/7 
s 2
f 15/17/10 16/18/11 3/3/12 2/2/10 
f 17/19/13 18/20/13 7/7/13 6/6/13 
s 1
f 9/9/7 19/21/7 17/19/7 6/6/7 
s 2
f 11/11/14 13/15/14 19/22/15 9/12/14 
f 20/23/16 3/3/12 16/18/11 21/24/17 
s 4
f 20/23/18 22/25/18 4/4/4 3/3/3 
s 8
f 23/26/19 24/27/19 25/28/20 26/29/21 
s 16
f 27/27/22 23/30/22 26/31/23 28/28/24 
s 32
f 29/26/25 27/27/25 28/28/26 30/29/27 
s 64
f 24/27/28 29/30/29 30/31/30 25/28/31 
s 8
f 31/32/32 26/29/21 25/28/20 32/33/33 
s 16
f 33/33/34 28/28/24 26/31/23 31/34/34 
s 32
f 34/32/35 30/29/27 28/28/26 33/33/35 
s 64
f 32/33/36 25/28/31 30/31/30 34/34/37 
s 4
f 35/35/38 36/36/39 37/37/39 38/38/40 
s 8
f 39/39/41 40/40/41 41/41/42 42/42/42 
s 32
f 37/37/43 43/43/43 44/44/44 38/38/45 
s 4
f 45/45/46 46/46/47 47/47/39 42/42/48 
s 8
f 48/48/49 45/45/50 49/49/51 50/50/52 
s 32
f 47/47/53 46/46/54 51/51/55 52/52/53 
s 4
f 45/45/46 48/48/56 53/53/57 46/46/47 
s 32
f 46/46/54 53/53/58 54/54/59 51/51/55 
s 8
f 55/55/60 48/48/49 50/50/52 56/56/60 
s 4
f 55/55/61 35/35/38 38/38/40 57/57/62 
s 32
f 38/38/45 44/44/44 58/58/63 57/57/63 
s 8
f 36/36/64 35/35/65 59/59/66 60/60/64 
f 45/45/50 42/42/42 41/41/42 49/49/51 
s 4
f 42/42/48 47/47/39 61/61/39 39/39/48 
s 32
f 61/61/67 47/47/53 52/52/53 62/62/67 
s 8
f 35/35/65 55/55/60 56/56/60 59/59/66 
s 4
f 48/48/56 55/55/61 57/57/62 53/53/57 
s 32
f 57/57/63 58/58/63 54/54/59 53/53/58 
f 63/63/68 64/64/69 65/65/69 66/66/68 
s 2
f 63/67/70 67/68/70 68/69/70 64/70/71 
s 4
f 69/69/72 70/68/73 66/67/73 65/70/72 
s 8
f 68/71/74 67/72/75 70/73/76 69/74/74 
s off
f 68/69/71 71/75/71 72/76/71 73/77/71 
f 73/78/77 72/79/77 74/80/77 75/81/77 
f 69/69/73 75/77/73 74/76/73 76/75/73 
f 69/74/78 76/82/78 71/83/78 68/71/78 
f 68/69/71 73/77/71 77/84/71 
f 65/70/73 78/84/73 69/69/73 
f 77/85/79 73/78/79 75/81/79 78/86/79 
f 64/64/80 77/85/80 78/86/80 65/65/80 
f 68/69/71 77/84/71 64/70/71 
f 69/69/72 78/84/72 75/77/72 
s 4
f 79/1/81 80/4/82 81/3/83 82/2/84 
f 83/5/85 84/8/85 85/7/86 86/6/86 
s 1
f 87/9/9 88/10/7 83/5/7 86/6/9 
s 4
f 89/11/87 90/14/87 88/13/87 87/12/87 
s 1
f 13/15/7 14/16/7 90/14/7 89/11/7 
s 2
f 15/17/10 82/2/10 81/3/88 16/18/11 
f 17/19/13 86/6/89 85/7/89 18/20/13 
s 1
f 87/9/9 86/6/9 17/19/7 19/21/7 
s 2
f 89/11/15 87/12/15 19/22/15 13/15/14 
f 91/23/17 21/24/17 16/18/11 81/3/88 
s 4
f 91/23/90 81/3/83 80/4/82 92/25/90 
s 8
f 93/26/91 94/29/92 95/28/93 96/27/19 
s 16
f 97/27/94 98/28/95 94/31/96 93/30/94 
s 32
f 99/26/25 100/29/27 98/28/26 97/27/25 
s 64
f 96/27/97 95/28/98 100/31/99 99/30/100 
s 8
f 101/32/33 102/33/33 95/28/93 94/29/92 
s 16
f 103/33/37 101/34/37 94/31/96 98/28/95 
s 32
f 104/32/35 103/33/35 98/28/26 100/29/27 
s 64
f 102/33/101 104/34/34 100/31/99 95/28/98 
s 4
f 105/35/102 106/38/103 107/37/48 108/36/48 
s 8
f 109/39/104 110/42/105 111/41/105 112/40/104 
s 32
f 107/37/106 106/38/107 113/44/108 114/43/106 
s 4
f 115/45/109 110/42/39 116/47/48 117/46/110 
s 8
f 118/48/111 119/50/112 120/49/113 115/45/114 
s 32
f 116/47/115 121/52/115 122/51/116 117/46/117 
s 4
f 115/45/109 117/46/110 123/53/118 118/48/119 
s 32
f 117/46/117 122/51/116 124/54/120 123/53/121 
s 8
f 125/55/122 126/56/122 119/50/112 118/48/111 
s 4
f 125/55/123 127/57/124 106/38/103 105/35/102 
s 32
f 106/38/107 127/57/125 128/58/125 113/44/108 
s 8
f 108/36/126 129/60/126 130/59/127 105/35/128 
f 115/45/114 120/49/113 111/41/105 110/42/105 
s 4
f 110/42/39 109/39/39 131/61/48 116/47/48 
s 32
f 131/61/129 132/62/129 121/52/115 116/47/115 
s 8
f 105/35/128 130/59/127 126/56/122 125/55/122 
s 4
f 118/48/119 123/53/118 127/57/124 125/55/123 
s 32
f 127/57/125 123/53/121 124/54/120 128/58/125 
f 133/63/9 134/66/130 135/65/131 136/64/131 
s 2
f 133/67/132 136/70/133 137/69/132 138/68/132 
s 4
f 139/69/134 135/70/134 134/67/134 140/68/135 
s 8
f 137/71/136 139/74/136 140/73/75 138/72/75 
s off
f 137/69/133 141/77/133 142/76/133 143/75/133 
f 141/78/137 144/81/137 145/80/137 142/79/137 
f 139/69/135 146/75/135 145/76/135 144/77/135 
f 139/74/138 137/71/138 143/83/138 146/82/138 
f 137/69/133 147/84/133 141/77/133 
f 135/70/135 139/69/135 148/84/135 
f 147/85/139 148/86/139 144/81/139 141/78/139 
f 136/64/140 135/65/140 148/86/140 147/85/140 
f 137/69/133 136/70/133 147/84/133 
f 139/69/134 144/77/134 148/84/134 
s 4
f 1/1/1 4/4/4 149/3/141 150/2/2 
f 5/5/5 8/8/5 151/7/5 152/6/6 
s 1
f 153/9/68 10/10/7 5/5/7 152/6/68 
s 4
f 154/11/8 12/14/8 10/13/8 153/12/8 
s 1
f 155/15/7 14/16/7 12/14/9 154/11/7 
s 2
f 156/17/142 150/2/142 149/3/143 157/18/144 
f 158/19/145 152/6/145 151/7/145 159/20/145 
s 1
f 153/9/68 152/6/68 158/19/130 160/21/68 
s 2
f 154/11/146 153/12/146 160/22/146 155/15/146 
f 161/23/147 162/24/148 157/18/144 149/3/143 
s 4
f 161/23/18 149/3/141 4/4/4 22/25/18 
s 8
f 163/26/149 164/29/150 165/28/151 166/27/149 
s 16
f 167/27/22 168/28/24 164/31/23 163/30/22 
s 32
f 169/26/152 170/29/153 168/28/154 167/27/152 
s 64
f 166/27/29 165/28/155 170/31/30 169/30/29 
s 8
f 171/32/156 172/33/35 165/28/151 164/29/150 
s 16
f 173/33/34 171/34/34 164/31/23 168/28/24 
s 32
f 174/32/33 173/33/33 168/28/154 170/29/153 
s 64
f 172/33/37 174/34/37 170/31/30 165/28/155 
s 4
f 175/35/157 176/38/158 177/37/159 178/36/160 
s 8
f 179/39/41 180/42/42 41/41/42 40/40/41 
s 32
f 177/37/43 176/38/45 44/44/44 43/43/43 
s 4
f 181/45/161 180/42/159 182/47/159 183/46/162 
s 8
f 184/48/49 50/50/52 49/49/51 181/45/50 
s 32
f 182/47/53 52/52/53 51/51/55 183/46/54 
s 4
f 181/45/161 183/46/162 185/53/163 184/48/164 
s 32
f 183/46/54 51/51/55 54/54/59 185/53/58 
s 8
f 186/55/60 56/56/60 50/50/52 184/48/49 
s 4
f 186/55/165 187/57/166 176/38/158 175/35/157 
s 32
f 176/38/45 187/57/63 58/58/63 44/44/44 
s 8
f 178/36/64 60/60/64 59/59/66 175/35/65 
f 181/45/50 49/49/51 41/41/42 180/42/42 
s 4
f 180/42/159 179/39/159 188/61/159 182/47/159 
s 32
f 188/61/67 62/62/67 52/52/53 182/47/53 
s 8
f 175/35/65 59/59/66 56/56/60 186/55/60 
s 4
f 184/48/164 185/53/163 187/57/166 186/55/165 
s 32
f 187/57/63 185/53/58 54/54/59 58/58/63 
f 63/63/68 66/66/68 189/65/167 190/64/167 
s 2
f 63/67/70 190/70/70 191/69/71 67/68/70 
s 4
f 192/69/73 189/70/73 66/67/73 70/68/73 
s 8
f 191/71/168 192/74/168 70/73/76 67/72/75 
s off
f 191/69/70 193/77/70 194/76/70 195/75/70 
f 193/78/169 196/81/169 197/80/169 194/79/169 
f 192/69/72 198/75/72 197/76/72 196/77/72 
f 192/74/170 191/71/170 195/83/170 198/82/170 
f 191/69/70 199/84/70 193/77/70 
f 189/70/72 192/69/72 200/84/72 
f 199/85/171 200/86/171 196/81/171 193/78/171 
f 190/64/172 189/65/172 200/86/172 199/85/172 
f 191/69/70 190/70/70 199/84/70 
f 192/69/73 196/77/73 200/84/73 
s 4
f 79/1/81 201/2/84 202/3/173 80/4/82 
f 83/5/85 203/6/86 204/7/85 84/8/85 
s 1
f 205/9/130 203/6/130 83/5/7 88/10/7 
s 4
f 206/11/87 205/12/87 88/13/87 90/14/87 
s 1
f 155/15/7 206/11/7 90/14/7 14/16/7 
s 2
f 156/17/142 157/18/144 202/3/174 201/2/142 
f 158/19/145 159/20/145 204/7/175 203/6/175 
s 1
f 205/9/130 160/21/68 158/19/130 203/6/130 
s 2
f 206/11/176 155/15/146 160/22/146 205/12/176 
f 207/23/148 202/3/174 157/18/144 162/24/148 
s 4
f 207/23/90 92/25/90 80/4/82 202/3/173 
s 8
f 208/26/177 209/27/149 210/28/178 211/29/179 
s 16
f 212/27/94 208/30/94 211/31/96 213/28/95 
s 32
f 214/26/152 212/27/152 213/28/154 215/29/153 
s 64
f 209/27/100 214/30/100 215/31/99 210/28/180 
s 8
f 216/32/35 211/29/179 210/28/178 217/33/35 
s 16
f 218/33/37 213/28/95 211/31/96 216/34/37 
s 32
f 219/32/33 215/29/153 213/28/154 218/33/33 
s 64
f 217/33/34 210/28/180 215/31/99 219/34/34 
s 4
f 220/35/181 221/36/159 222/37/160 223/38/182 
s 8
f 224/39/104 112/40/104 111/41/105 225/42/105 
s 32
f 222/37/106 114/43/106 113/44/108 223/38/107 
s 4
f 226/45/183 227/46/184 228/47/160 225/42/160 
s 8
f 229/48/111 226/45/114 120/49/113 119/50/112 
s 32
f 228/47/115 227/46/117 122/51/116 121/52/115 
s 4
f 226/45/183 229/48/185 230/53/186 227/46/184 
s 32
f 227/46/117 230/53/121 124/54/120 122/51/116 
s 8
f 231/55/122 229/48/111 119/50/112 126/56/122 
s 4
f 231/55/187 220/35/181 223/38/182 232/57/188 
s 32
f 223/38/107 113/44/108 128/58/125 232/57/125 
s 8
f 221/36/126 220/35/128 130/59/127 129/60/126 
f 226/45/114 225/42/105 111/41/105 120/49/113 
s 4
f 225/42/160 228/47/160 233/61/160 224/39/160 
s 32
f 233/61/129 228/47/115 121/52/115 132/62/129 
s 8
f 220/35/128 231/55/122 126/56/122 130/59/127 
s 4
f 229/48/185 231/55/187 232/57/188 230/53/186 
s 32
f 232/57/125 128/58/125 124/54/120 230/53/121 
f 133/63/9 234/64/189 235/65/189 134/66/130 
s 2
f 133/67/132 138/68/132 236/69/133 234/70/132 
s 4
f 237/69/135 140/68/135 134/67/134 235/70/135 
s 8
f 236/71/190 138/72/75 140/73/75 237/74/190 
s off
f 236/69/132 238/75/132 239/76/132 240/77/132 
f 240/78/191 239/79/191 241/80/191 242/81/191 
f 237/69/134 242/77/134 241/76/134 243/75/134 
f 237/74/192 243/82/192 238/83/192 236/71/192 
f 236/69/132 240/77/132 244/84/132 
f 235/70/134 245/84/134 237/69/134 
f 244/85/193 240/78/193 242/81/193 245/86/193 
f 234/64/194 244/85/194 245/86/194 235/65/194 
f 236/69/132 244/84/132 234/70/132 
f 237/69/135 245/84/135 242/77/135 
# 188 polygons - 16 triangles

